<svg width="158" height="24" viewBox="0 0 158 24" fill="none" xmlns="http://www.w3.org/2000/svg">
<path d="M23.8742 4.28125V19H21.3368V4.28125H23.8742ZM29.8789 10.7207V12.7324H23.2272V10.7207H29.8789ZM30.718 4.28125V6.30306H23.2272V4.28125H30.718ZM31.8098 13.6523V13.4198C31.8098 12.6313 31.9243 11.9001 32.1535 11.2262C32.3826 10.5455 32.7128 9.95579 33.1441 9.45707C33.5822 8.95162 34.1146 8.56074 34.7414 8.28443C35.3749 8.00137 36.0892 7.85985 36.8845 7.85985C37.6865 7.85985 38.4008 8.00137 39.0276 8.28443C39.6611 8.56074 40.1969 8.95162 40.6349 9.45707C41.073 9.95579 41.4066 10.5455 41.6357 11.2262C41.8649 11.9001 41.9794 12.6313 41.9794 13.4198V13.6523C41.9794 14.4408 41.8649 15.172 41.6357 15.846C41.4066 16.5199 41.073 17.1096 40.6349 17.6151C40.1969 18.1138 39.6645 18.5047 39.0377 18.7877C38.411 19.064 37.7 19.2022 36.9047 19.2022C36.1027 19.2022 35.385 19.064 34.7515 18.7877C34.1247 18.5047 33.5923 18.1138 33.1543 17.6151C32.7162 17.1096 32.3826 16.5199 32.1535 15.846C31.9243 15.172 31.8098 14.4408 31.8098 13.6523ZM34.246 13.4198V13.6523C34.246 14.1443 34.2966 14.6093 34.3977 15.0474C34.4988 15.4854 34.6571 15.8696 34.8728 16.1998C35.0885 16.53 35.3648 16.7895 35.7017 16.9782C36.0387 17.1669 36.4397 17.2612 36.9047 17.2612C37.3562 17.2612 37.7471 17.1669 38.0774 16.9782C38.4143 16.7895 38.6906 16.53 38.9063 16.1998C39.122 15.8696 39.2803 15.4854 39.3814 15.0474C39.4893 14.6093 39.5432 14.1443 39.5432 13.6523V13.4198C39.5432 12.9346 39.4893 12.4763 39.3814 12.045C39.2803 11.6069 39.1186 11.2194 38.8962 10.8824C38.6805 10.5455 38.4042 10.2826 38.0672 10.0939C37.737 9.8985 37.3428 9.80078 36.8845 9.80078C36.4262 9.80078 36.0286 9.8985 35.6916 10.0939C35.3614 10.2826 35.0885 10.5455 34.8728 10.8824C34.6571 11.2194 34.4988 11.6069 34.3977 12.045C34.2966 12.4763 34.246 12.9346 34.246 13.4198ZM43.5565 13.6523V13.4198C43.5565 12.6313 43.671 11.9001 43.9002 11.2262C44.1293 10.5455 44.4595 9.95579 44.8908 9.45707C45.3289 8.95162 45.8613 8.56074 46.4881 8.28443C47.1216 8.00137 47.8359 7.85985 48.6312 7.85985C49.4332 7.85985 50.1475 8.00137 50.7743 8.28443C51.4078 8.56074 51.9436 8.95162 52.3816 9.45707C52.8197 9.95579 53.1533 10.5455 53.3824 11.2262C53.6116 11.9001 53.7261 12.6313 53.7261 13.4198V13.6523C53.7261 14.4408 53.6116 15.172 53.3824 15.846C53.1533 16.5199 52.8197 17.1096 52.3816 17.6151C51.9436 18.1138 51.4112 18.5047 50.7844 18.7877C50.1577 19.064 49.4466 19.2022 48.6514 19.2022C47.8494 19.2022 47.1317 19.064 46.4982 18.7877C45.8714 18.5047 45.339 18.1138 44.901 17.6151C44.4629 17.1096 44.1293 16.5199 43.9002 15.846C43.671 15.172 43.5565 14.4408 43.5565 13.6523ZM45.9927 13.4198V13.6523C45.9927 14.1443 46.0433 14.6093 46.1444 15.0474C46.2455 15.4854 46.4038 15.8696 46.6195 16.1998C46.8351 16.53 47.1115 16.7895 47.4484 16.9782C47.7854 17.1669 48.1864 17.2612 48.6514 17.2612C49.1029 17.2612 49.4938 17.1669 49.8241 16.9782C50.161 16.7895 50.4373 16.53 50.653 16.1998C50.8687 15.8696 51.027 15.4854 51.1281 15.0474C51.2359 14.6093 51.2899 14.1443 51.2899 13.6523V13.4198C51.2899 12.9346 51.2359 12.4763 51.1281 12.045C51.027 11.6069 50.8653 11.2194 50.6429 10.8824C50.4272 10.5455 50.1509 10.2826 49.8139 10.0939C49.4837 9.8985 49.0895 9.80078 48.6312 9.80078C48.1729 9.80078 47.7753 9.8985 47.4383 10.0939C47.1081 10.2826 46.8351 10.5455 46.6195 10.8824C46.4038 11.2194 46.2455 11.6069 46.1444 12.045C46.0433 12.4763 45.9927 12.9346 45.9927 13.4198ZM60.7822 8.06203V9.84122H54.6157V8.06203H60.7822ZM56.3949 5.38313H58.8312V15.9774C58.8312 16.3144 58.8784 16.5738 58.9727 16.7558C59.0738 16.931 59.212 17.049 59.3872 17.1096C59.5624 17.1703 59.768 17.2006 60.0038 17.2006C60.1723 17.2006 60.3341 17.1905 60.4891 17.1703C60.6441 17.15 60.7688 17.1298 60.8631 17.1096L60.8732 18.9697C60.671 19.0303 60.4352 19.0842 60.1656 19.1314C59.9028 19.1786 59.5995 19.2022 59.2558 19.2022C58.6964 19.2022 58.2011 19.1045 57.7697 18.909C57.3384 18.7068 57.0015 18.38 56.7588 17.9284C56.5162 17.4769 56.3949 16.8771 56.3949 16.129V5.38313ZM65.8368 17.8071L68.8088 8.06203H71.4169L67.0296 20.668C66.9285 20.9376 66.7971 21.2307 66.6354 21.5475C66.4736 21.8642 66.2613 22.1641 65.9985 22.4472C65.7424 22.737 65.4223 22.9695 65.0381 23.1447C64.654 23.3267 64.189 23.4176 63.6431 23.4176C63.4274 23.4176 63.2185 23.3974 63.0163 23.357C62.8209 23.3233 62.6356 23.2862 62.4603 23.2458L62.4502 21.3857C62.5176 21.3925 62.5985 21.3992 62.6928 21.4059C62.7939 21.4127 62.8748 21.4161 62.9355 21.4161C63.3398 21.4161 63.6768 21.3655 63.9464 21.2644C64.2159 21.1701 64.435 21.0151 64.6035 20.7994C64.7787 20.5837 64.9269 20.294 65.0483 19.93L65.8368 17.8071ZM64.1587 8.06203L66.7567 16.2503L67.1914 18.818L65.5032 19.2527L61.5303 8.06203H64.1587ZM78.7864 6.2424L74.389 19H71.7303L77.2701 4.28125H78.9684L78.7864 6.2424ZM82.4661 19L78.0586 6.2424L77.8665 4.28125H79.5749L85.1349 19H82.4661ZM82.2538 13.5411V15.5528H74.2475V13.5411H82.2538ZM88.7742 10.3972V19H86.3379V8.06203H88.6326L88.7742 10.3972ZM88.3395 13.1267L87.551 13.1165C87.5577 12.3415 87.6655 11.6305 87.8744 10.9835C88.0901 10.3366 88.3866 9.78056 88.764 9.31555C89.1482 8.85053 89.6065 8.49335 90.1389 8.24399C90.6713 7.98789 91.2643 7.85985 91.9181 7.85985C92.4437 7.85985 92.9189 7.93398 93.3434 8.08225C93.7748 8.22377 94.142 8.45628 94.4453 8.77977C94.7553 9.10326 94.9912 9.52447 95.1529 10.0434C95.3147 10.5556 95.3956 11.1857 95.3956 11.9338V19H92.9492V11.9237C92.9492 11.398 92.8717 10.9835 92.7167 10.6803C92.5684 10.3703 92.3494 10.1512 92.0596 10.0232C91.7765 9.88839 91.4227 9.821 90.9981 9.821C90.5803 9.821 90.2063 9.90861 89.876 10.0838C89.5458 10.2591 89.2661 10.4983 89.037 10.8016C88.8146 11.1048 88.6427 11.4553 88.5214 11.8529C88.4001 12.2505 88.3395 12.6751 88.3395 13.1267ZM104.049 16.8063V11.5901C104.049 11.1992 103.978 10.8622 103.837 10.5792C103.695 10.2961 103.479 10.0771 103.19 9.92209C102.907 9.76708 102.549 9.68958 102.118 9.68958C101.72 9.68958 101.377 9.75698 101.087 9.89176C100.797 10.0265 100.571 10.2085 100.41 10.4377C100.248 10.6668 100.167 10.9263 100.167 11.216H97.7409C97.7409 10.7847 97.8453 10.3669 98.0542 9.96253C98.2632 9.55816 98.5664 9.19761 98.9641 8.88086C99.3617 8.56411 99.8368 8.31475 100.389 8.13279C100.942 7.95083 101.562 7.85985 102.249 7.85985C103.072 7.85985 103.8 7.998 104.433 8.27432C105.073 8.55063 105.575 8.96847 105.939 9.52784C106.31 10.0805 106.495 10.7746 106.495 11.6103V16.4727C106.495 16.9715 106.529 17.4196 106.596 17.8172C106.671 18.2081 106.775 18.5485 106.91 18.8383V19H104.413C104.298 18.7372 104.207 18.4036 104.14 17.9992C104.079 17.5881 104.049 17.1905 104.049 16.8063ZM104.403 12.3483L104.423 13.8545H102.674C102.223 13.8545 101.825 13.8983 101.481 13.9859C101.137 14.0668 100.851 14.1881 100.622 14.3498C100.393 14.5116 100.221 14.707 100.106 14.9362C99.9918 15.1653 99.9345 15.4248 99.9345 15.7146C99.9345 16.0044 100.002 16.2706 100.137 16.5132C100.271 16.7491 100.467 16.9344 100.723 17.0692C100.986 17.204 101.303 17.2714 101.673 17.2714C102.172 17.2714 102.607 17.1703 102.977 16.9681C103.355 16.7592 103.651 16.5064 103.867 16.2099C104.083 15.9066 104.197 15.6202 104.211 15.3506L104.999 16.4323C104.918 16.7086 104.78 17.0052 104.585 17.3219C104.389 17.6387 104.133 17.9419 103.816 18.2317C103.506 18.5148 103.132 18.7473 102.694 18.9292C102.263 19.1112 101.764 19.2022 101.198 19.2022C100.484 19.2022 99.8469 19.0607 99.2875 18.7776C98.7282 18.4878 98.2901 18.1003 97.9734 17.6151C97.6566 17.1231 97.4982 16.5671 97.4982 15.9471C97.4982 15.3675 97.6061 14.8553 97.8217 14.4105C98.0441 13.959 98.3676 13.5816 98.7922 13.2783C99.2235 12.975 99.7492 12.7459 100.369 12.5909C100.989 12.4291 101.697 12.3483 102.492 12.3483H104.403ZM111.651 3.47253V19H109.205V3.47253H111.651ZM117.494 17.8071L120.466 8.06203H123.074L118.687 20.668C118.586 20.9376 118.454 21.2307 118.293 21.5475C118.131 21.8642 117.918 22.1641 117.656 22.4472C117.4 22.737 117.079 22.9695 116.695 23.1447C116.311 23.3267 115.846 23.4176 115.3 23.4176C115.085 23.4176 114.876 23.3974 114.673 23.357C114.478 23.3233 114.293 23.2862 114.117 23.2458L114.107 21.3857C114.175 21.3925 114.256 21.3992 114.35 21.4059C114.451 21.4127 114.532 21.4161 114.593 21.4161C114.997 21.4161 115.334 21.3655 115.604 21.2644C115.873 21.1701 116.092 21.0151 116.261 20.7994C116.436 20.5837 116.584 20.294 116.705 19.93L117.494 17.8071ZM115.816 8.06203L118.414 16.2503L118.849 18.818L117.16 19.2527L113.187 8.06203H115.816ZM129.483 8.06203V9.84122H123.317V8.06203H129.483ZM125.096 5.38313H127.532V15.9774C127.532 16.3144 127.579 16.5738 127.674 16.7558C127.775 16.931 127.913 17.049 128.088 17.1096C128.263 17.1703 128.469 17.2006 128.705 17.2006C128.873 17.2006 129.035 17.1905 129.19 17.1703C129.345 17.15 129.47 17.1298 129.564 17.1096L129.574 18.9697C129.372 19.0303 129.136 19.0842 128.867 19.1314C128.604 19.1786 128.3 19.2022 127.957 19.2022C127.397 19.2022 126.902 19.1045 126.471 18.909C126.039 18.7068 125.702 18.38 125.46 17.9284C125.217 17.4769 125.096 16.8771 125.096 16.129V5.38313ZM133.972 8.06203V19H131.525V8.06203H133.972ZM131.364 5.19106C131.364 4.8204 131.485 4.51376 131.727 4.27114C131.977 4.02178 132.32 3.89711 132.759 3.89711C133.19 3.89711 133.53 4.02178 133.78 4.27114C134.029 4.51376 134.154 4.8204 134.154 5.19106C134.154 5.55499 134.029 5.85826 133.78 6.10088C133.53 6.34349 133.19 6.4648 132.759 6.4648C132.32 6.4648 131.977 6.34349 131.727 6.10088C131.485 5.85826 131.364 5.55499 131.364 5.19106ZM141.109 17.2612C141.506 17.2612 141.863 17.1837 142.18 17.0287C142.504 16.867 142.763 16.6446 142.959 16.3615C143.161 16.0785 143.272 15.7516 143.292 15.381H145.587C145.573 16.0886 145.365 16.7322 144.96 17.3118C144.556 17.8914 144.02 18.353 143.353 18.6967C142.686 19.0337 141.948 19.2022 141.139 19.2022C140.303 19.2022 139.575 19.0607 138.955 18.7776C138.335 18.4878 137.82 18.0902 137.409 17.5847C136.998 17.0793 136.688 16.4963 136.479 15.8359C136.276 15.1754 136.175 14.4678 136.175 13.713V13.3592C136.175 12.6044 136.276 11.8967 136.479 11.2363C136.688 10.5691 136.998 9.98274 137.409 9.47729C137.82 8.97184 138.335 8.57759 138.955 8.29454C139.575 8.00474 140.3 7.85985 141.129 7.85985C142.005 7.85985 142.773 8.03507 143.434 8.38552C144.094 8.72922 144.613 9.21109 144.99 9.83111C145.375 10.4444 145.573 11.1588 145.587 11.9742H143.292C143.272 11.5699 143.171 11.2059 142.989 10.8824C142.814 10.5522 142.564 10.2894 142.241 10.0939C141.924 9.8985 141.543 9.80078 141.099 9.80078C140.607 9.80078 140.199 9.90187 139.875 10.1041C139.552 10.2995 139.299 10.5691 139.117 10.9128C138.935 11.2497 138.804 11.6305 138.723 12.0551C138.649 12.4729 138.612 12.9076 138.612 13.3592V13.713C138.612 14.1645 138.649 14.6026 138.723 15.0272C138.797 15.4517 138.925 15.8325 139.107 16.1695C139.296 16.4997 139.552 16.7659 139.875 16.9681C140.199 17.1635 140.61 17.2612 141.109 17.2612ZM153.593 16.0381C153.593 15.7954 153.533 15.5764 153.411 15.381C153.29 15.1788 153.057 14.9968 152.714 14.8351C152.377 14.6733 151.878 14.5251 151.218 14.3903C150.638 14.2622 150.106 14.1106 149.62 13.9354C149.142 13.7534 148.731 13.5344 148.387 13.2783C148.043 13.0222 147.777 12.7189 147.588 12.3685C147.4 12.018 147.305 11.6137 147.305 11.1554C147.305 10.7106 147.403 10.2894 147.599 9.89176C147.794 9.49414 148.074 9.14369 148.438 8.84042C148.802 8.53715 149.243 8.29791 149.762 8.12268C150.288 7.94746 150.874 7.85985 151.521 7.85985C152.437 7.85985 153.223 8.01485 153.876 8.32486C154.537 8.62813 155.042 9.0426 155.393 9.56827C155.743 10.0872 155.918 10.6735 155.918 11.3272H153.482C153.482 11.0375 153.408 10.7679 153.26 10.5185C153.118 10.2624 152.902 10.0569 152.613 9.90187C152.323 9.74013 151.959 9.65925 151.521 9.65925C151.103 9.65925 150.756 9.72665 150.48 9.86144C150.21 9.98948 150.008 10.158 149.873 10.3669C149.745 10.5758 149.681 10.8049 149.681 11.0543C149.681 11.2363 149.715 11.4014 149.782 11.5496C149.856 11.6912 149.978 11.8226 150.146 11.9439C150.315 12.0585 150.544 12.1663 150.833 12.2674C151.13 12.3685 151.501 12.4662 151.945 12.5605C152.781 12.7358 153.499 12.9615 154.099 13.2379C154.705 13.5074 155.17 13.8579 155.494 14.2892C155.817 14.7138 155.979 15.2529 155.979 15.9066C155.979 16.3919 155.875 16.8367 155.666 17.241C155.463 17.6387 155.167 17.9857 154.776 18.2823C154.385 18.5721 153.917 18.7978 153.371 18.9596C152.832 19.1213 152.225 19.2022 151.551 19.2022C150.561 19.2022 149.721 19.027 149.034 18.6765C148.347 18.3193 147.824 17.8644 147.467 17.3118C147.117 16.7524 146.942 16.1728 146.942 15.573H149.297C149.324 16.0246 149.449 16.3851 149.671 16.6547C149.9 16.9175 150.183 17.1096 150.52 17.2309C150.864 17.3455 151.218 17.4028 151.582 17.4028C152.02 17.4028 152.387 17.3455 152.683 17.2309C152.98 17.1096 153.206 16.9479 153.361 16.7457C153.516 16.5368 153.593 16.3009 153.593 16.0381Z" fill="#2462EA"/>
<g clip-path="url(#clip0_8_38)">
<path d="M11.2143 0.862637C8.99631 0.862637 6.82815 1.52034 4.98397 2.75258C3.13979 3.98483 1.70242 5.73626 0.853642 7.7854C0.00485898 9.83454 -0.217221 12.0894 0.215484 14.2647C0.64819 16.4401 1.71625 18.4383 3.28459 20.0066C4.85294 21.575 6.85113 22.643 9.02649 23.0757C11.2019 23.5084 13.4567 23.2864 15.5058 22.4376C17.555 21.5888 19.3064 20.1514 20.5386 18.3072C21.7709 16.4631 22.4286 14.2949 22.4286 12.0769C22.4254 9.10367 21.2429 6.2531 19.1405 4.15069C17.0381 2.04829 14.1875 0.865776 11.2143 0.862637ZM19.4654 16.7589H15.8402L14.8417 15.383L16.2036 11.417L17.821 10.8897L20.6505 13.0603C20.5166 14.3621 20.113 15.6217 19.4654 16.7589ZM1.78135 13.0603L4.60541 10.8908L6.22286 11.4181L7.58474 15.3841L6.5884 16.7589H2.96316C2.31484 15.6219 1.91051 14.3623 1.77596 13.0603H1.78135ZM2.85965 7.59983L3.45379 9.60547L1.80184 10.866C1.9483 9.72229 2.30356 8.6152 2.84994 7.59983H2.85965ZM9.16553 14.6648L7.9298 11.0687L11.2143 8.81076L14.4988 11.0687L13.2631 14.6648H9.16553ZM18.9856 9.60547L19.5797 7.59983C20.1261 8.6152 20.4814 9.72229 20.6278 10.866L18.9856 9.60547ZM18.317 5.79045L17.2916 9.24963L15.6666 9.77691L12.0769 7.30977V5.62979L15.2137 3.47319C16.3951 4.02571 17.4509 4.81433 18.316 5.79045H18.317ZM13.1628 2.78955L11.2143 4.1288L9.26581 2.78955C10.5509 2.52069 11.8777 2.52069 13.1628 2.78955ZM7.21489 3.47319L10.3517 5.62979V7.30977L6.76308 9.77691L5.13809 9.24963L4.11263 5.79045C4.97766 4.81433 6.03344 4.02571 7.21489 3.47319ZM4.22154 18.4842H6.41803L7.19117 20.6699C6.06847 20.1415 5.05972 19.3991 4.22154 18.4842ZM9.27336 21.3643L7.99234 17.7606L8.98761 16.3901H13.441L14.4362 17.7606L13.1606 21.3643C11.877 21.6333 10.5516 21.6333 9.26796 21.3643H9.27336ZM15.2428 20.6699L16.0159 18.4842H18.2124C17.3727 19.3996 16.362 20.1421 15.2374 20.6699H15.2428Z" fill="#2462EA"/>
</g>
<defs>
<clipPath id="clip0_8_38">
<rect width="22.4286" height="22.4286" fill="white" transform="translate(0 0.862637)"/>
</clipPath>
</defs>
</svg>
